<svg width="180" height="180" viewBox="0 0 180 180" fill="none" xmlns="http://www.w3.org/2000/svg">
<rect x="19" y="23" width="140" height="140" rx="8" fill="#67B346"/>
<path d="M46.04 79C46.04 77.3431 47.3832 76 49.04 76H84.04C85.6969 76 87.04 77.3431 87.04 79C87.04 80.6569 85.6969 82 84.04 82H49.04C47.3832 82 46.04 80.6569 46.04 79Z" fill="white"/>
<path fill-rule="evenodd" clip-rule="evenodd" d="M60.5277 94.247C59.2867 95.3448 57.3908 95.2287 56.293 93.9877L42.9998 78.9606L56.3322 64.4688C57.454 63.2495 59.3518 63.1704 60.5712 64.2922C61.7905 65.414 61.8696 67.3119 60.7478 68.5312L51.0802 79.0394L60.787 90.0123C61.8848 91.2533 61.7687 93.1492 60.5277 94.247Z" fill="white"/>
<path d="M131.96 54.5C131.96 52.8431 130.617 51.5 128.96 51.5H93.96C92.3031 51.5 90.96 52.8431 90.96 54.5C90.96 56.1569 92.3031 57.5 93.96 57.5H128.96C130.617 57.5 131.96 56.1569 131.96 54.5Z" fill="white"/>
<path fill-rule="evenodd" clip-rule="evenodd" d="M117.472 69.747C118.713 70.8448 120.609 70.7287 121.707 69.4877L135 54.4606L121.668 39.9688C120.546 38.7495 118.648 38.6704 117.429 39.7922C116.209 40.914 116.13 42.8119 117.252 44.0312L126.92 54.5394L117.213 65.5123C116.115 66.7533 116.231 68.6492 117.472 69.747Z" fill="white"/>
<path d="M47.04 131C47.04 129.343 48.3832 128 50.04 128H85.04C86.6969 128 88.04 129.343 88.04 131C88.04 132.657 86.6969 134 85.04 134H50.04C48.3832 134 47.04 132.657 47.04 131Z" fill="white"/>
<path fill-rule="evenodd" clip-rule="evenodd" d="M61.5277 146.247C60.2867 147.345 58.3908 147.229 57.293 145.988L43.9998 130.961L57.3322 116.469C58.454 115.25 60.3518 115.17 61.5712 116.292C62.7905 117.414 62.8696 119.312 61.7478 120.531L52.0802 131.039L61.787 142.012C62.8848 143.253 62.7687 145.149 61.5277 146.247Z" fill="white"/>
<path d="M131.96 107C131.96 105.343 130.617 104 128.96 104H93.96C92.3031 104 90.96 105.343 90.96 107C90.96 108.657 92.3031 110 93.96 110H128.96C130.617 110 131.96 108.657 131.96 107Z" fill="white"/>
<path fill-rule="evenodd" clip-rule="evenodd" d="M117.472 122.247C118.713 123.345 120.609 123.229 121.707 121.988L135 106.961L121.668 92.4688C120.546 91.2495 118.648 91.1704 117.429 92.2922C116.209 93.414 116.13 95.3119 117.252 96.5312L126.92 107.039L117.213 118.012C116.115 119.253 116.231 121.149 117.472 122.247Z" fill="white"/>
</svg>
