<svg width="180" height="180" viewBox="0 0 180 180" fill="none" xmlns="http://www.w3.org/2000/svg">
<rect x="19" y="23" width="140" height="140" rx="8" fill="#67B346"/>
<circle cx="88.8932" cy="120.657" r="10.1617" fill="white"/>
<path fill-rule="evenodd" clip-rule="evenodd" d="M88.9334 99.2042C81.9539 99.2042 75.7342 102.448 71.695 107.523C70.5301 108.987 68.3991 109.229 66.9353 108.064C65.4716 106.9 65.2293 104.769 66.3942 103.305C71.6635 96.6838 79.8027 92.4297 88.9334 92.4297C98.0641 92.4297 106.203 96.6838 111.473 103.305C112.637 104.769 112.395 106.9 110.931 108.064C109.468 109.229 107.337 108.987 106.172 107.523C102.133 102.448 95.9129 99.2042 88.9334 99.2042Z" fill="white"/>
<path fill-rule="evenodd" clip-rule="evenodd" d="M89.2404 80.0098C77.8261 80.0098 67.7361 85.6815 61.6347 94.3755C60.5601 95.9068 58.4476 96.277 56.9164 95.2023C55.3851 94.1277 55.0149 92.0152 56.0895 90.484C63.4047 80.0603 75.5253 73.2354 89.2404 73.2354C102.956 73.2354 115.076 80.0603 122.391 90.4839C123.466 92.0152 123.096 94.1277 121.564 95.2023C120.033 96.277 117.921 95.9068 116.846 94.3755C110.745 85.6815 100.655 80.0098 89.2404 80.0098Z" fill="white"/>
<path fill-rule="evenodd" clip-rule="evenodd" d="M89.0003 61.9445C73.5896 61.9445 59.9189 69.3917 51.3888 80.898C50.2747 82.4008 48.1533 82.7159 46.6505 81.6018C45.1477 80.4877 44.8326 78.3663 45.9467 76.8635C55.6996 63.7078 71.3532 55.17 89.0003 55.17C106.647 55.17 122.301 63.7078 132.054 76.8635C133.168 78.3663 132.853 80.4877 131.35 81.6018C129.847 82.7159 127.726 82.4008 126.612 80.898C118.082 69.3917 104.411 61.9445 89.0003 61.9445Z" fill="white"/>
</svg>
